<svg width="960" height="540" viewBox="0 0 960 540" fill="none" xmlns="http://www.w3.org/2000/svg">
  <defs>
    <linearGradient id="bg" x1="0" y1="0" x2="960" y2="540" gradientUnits="userSpaceOnUse">
      <stop stop-color="#244941"/>
      <stop offset="1" stop-color="#B7694E"/>
    </linearGradient>
    <linearGradient id="panel" x1="140" y1="96" x2="824" y2="444" gradientUnits="userSpaceOnUse">
      <stop stop-color="#FFFFFF" stop-opacity="0.25"/>
      <stop offset="1" stop-color="#FFFFFF" stop-opacity="0.08"/>
    </linearGradient>
  </defs>

  <rect width="960" height="540" rx="30" fill="url(#bg)"/>
  <circle cx="180" cy="106" r="88" fill="#FFFFFF" fill-opacity="0.10"/>
  <circle cx="812" cy="434" r="102" fill="#FFFFFF" fill-opacity="0.09"/>

  <rect x="92" y="76" width="776" height="388" rx="34" fill="url(#panel)" stroke="#FFFFFF" stroke-opacity="0.24" stroke-width="2"/>
  <rect x="140" y="124" width="680" height="292" rx="28" fill="#0F2823" fill-opacity="0.16"/>

  <path d="M308 214C342 178 402 178 438 214" stroke="#D7E8E0" stroke-width="8" stroke-linecap="round"/>
  <path d="M520 214C556 178 616 178 652 214" stroke="#F8E7E1" stroke-width="8" stroke-linecap="round"/>

  <circle cx="252" cy="228" r="58" fill="#F4EFE5"/>
  <circle cx="252" cy="214" r="17" fill="#2F5D50"/>
  <rect x="217" y="238" width="70" height="42" rx="21" fill="#2F5D50"/>

  <circle cx="480" cy="228" r="58" fill="#F4EFE5"/>
  <circle cx="480" cy="214" r="17" fill="#163A34"/>
  <rect x="445" y="238" width="70" height="42" rx="21" fill="#163A34"/>

  <circle cx="708" cy="228" r="58" fill="#F4EFE5"/>
  <circle cx="708" cy="214" r="17" fill="#C76B4F"/>
  <rect x="673" y="238" width="70" height="42" rx="21" fill="#C76B4F"/>

  <rect x="186" y="344" width="132" height="26" rx="13" fill="#FFFFFF" fill-opacity="0.22"/>
  <rect x="414" y="344" width="132" height="26" rx="13" fill="#FFFFFF" fill-opacity="0.22"/>
  <rect x="642" y="344" width="132" height="26" rx="13" fill="#FFFFFF" fill-opacity="0.22"/>
</svg>
