<svg width="600" height="380" viewBox="0 0 600 380" fill="none" xmlns="http://www.w3.org/2000/svg">
  <defs>
    <linearGradient id="bg" x1="0" y1="0" x2="600" y2="380" gradientUnits="userSpaceOnUse">
      <stop stop-color="#244941"/>
      <stop offset="1" stop-color="#2F5D50"/>
    </linearGradient>
  </defs>

  <rect width="600" height="380" rx="24" fill="url(#bg)"/>
  <circle cx="96" cy="84" r="46" fill="#FFFFFF" fill-opacity="0.11"/>
  <circle cx="500" cy="298" r="72" fill="#FFFFFF" fill-opacity="0.08"/>
  <rect x="70" y="86" width="460" height="238" rx="20" fill="#FFFFFF" fill-opacity="0.07" stroke="#FFFFFF" stroke-opacity="0.15"/>

  <path d="M221 170C243 150 276 150 300 170" stroke="#D7E8E0" stroke-width="6" stroke-linecap="round"/>
  <path d="M309 170C333 150 366 150 387 170" stroke="#F8E7E1" stroke-width="6" stroke-linecap="round"/>

  <circle cx="185" cy="190" r="46" fill="#F5F1E8"/>
  <circle cx="185" cy="178" r="14" fill="#2F5D50"/>
  <rect x="158" y="197" width="54" height="34" rx="17" fill="#2F5D50"/>

  <circle cx="304" cy="175" r="46" fill="#F5F1E8"/>
  <circle cx="304" cy="163" r="14" fill="#C76B4F"/>
  <rect x="277" y="182" width="54" height="34" rx="17" fill="#C76B4F"/>

  <circle cx="422" cy="190" r="46" fill="#F5F1E8"/>
  <circle cx="422" cy="178" r="14" fill="#163A34"/>
  <rect x="395" y="197" width="54" height="34" rx="17" fill="#163A34"/>

  <rect x="186" y="272" width="228" height="24" rx="12" fill="#FFFFFF" fill-opacity="0.20"/>
</svg>
