<svg baseProfile="tiny-ps" version="1.2" width="1024" height="1024" viewBox="0 0 1024 1024" fill="none" xmlns="http://www.w3.org/2000/svg">
  <title>Realite</title>
  <desc>Realite application logo</desc>
  
  <rect width="1024" height="1024" rx="166" fill="url(#bg)" />
  
  <rect
    x="81"
    y="206"
    width="862"
    height="744"
    rx="124"
    fill="white"
    fillOpacity="0.18"
    stroke="white"
    strokeOpacity="0.18"
    strokeWidth="8"
  />

  <rect x="208.318" y="60.818" width="87" height="86" rx="17" fill="white" fillOpacity="0.92" />
  <rect x="727.318" y="60.818" width="86" height="86" rx="17" fill="white" fillOpacity="0.92" />

  <g fill="white" fillOpacity="0.98">
    <circle cx="273.772" cy="423.321" r="74.6475" />
    <circle cx="510.409" cy="498.476" r="81.7568" />
    <circle cx="748.062" cy="423.321" r="74.6475" />
    <path d="M510.917 618.826C551.844 618.826 592.922 634.825 623.697 666.849C654.688 699.098 673.415 745.635 673.415 803.589C673.415 821.581 658.864 836.167 640.915 836.167H380.919C362.97 836.167 348.419 821.581 348.419 803.589C348.419 745.635 367.145 699.098 398.137 666.849C428.912 634.825 469.99 618.826 510.917 618.826Z" />
    <path d="M274.279 540.624C311.625 540.624 349.11 555.202 377.191 584.383C385.204 592.709 392.316 602.08 398.397 612.437C383.936 621.486 370.333 632.443 357.959 645.31C333.898 670.327 315.288 701.69 303.772 738.668H155.656C139.278 738.668 126 725.377 126 708.982C126 656.174 143.088 613.769 171.367 584.383C199.449 555.202 236.934 540.624 274.279 540.624ZM748.57 540.624C785.916 540.624 823.4 555.202 851.481 584.383C879.761 613.769 896.849 656.173 896.85 708.982C896.85 725.377 883.572 738.668 867.193 738.668H718.062C706.546 701.69 687.936 670.327 663.875 645.31C651.713 632.664 638.363 621.863 624.179 612.904C630.32 602.362 637.526 592.834 645.658 584.383C673.74 555.202 711.225 540.624 748.57 540.624Z" />
  </g>

  <defs>
    <linearGradient id="bg" x1="512" y1="0" x2="512" y2="1024" gradientUnits="userSpaceOnUse">
      <stop offset="0" stopColor="#6366F1" />
      <stop offset="0.55" stopColor="#4F46E5" />
      <stop offset="1" stopColor="#312E81" />
    </linearGradient>
  </defs>
</svg>
